<?xml version="1.0" encoding="UTF-8"?>
<!DOCTYPE svg PUBLIC "-//W3C//DTD SVG 1.1//EN" "http://www.w3.org/Graphics/SVG/1.1/DTD/svg11.dtd">
<!-- Creator: CorelDRAW X7 -->
<svg xmlns="http://www.w3.org/2000/svg" xml:space="preserve" width="132.292mm" height="132.292mm" version="1.1" style="shape-rendering:geometricPrecision; text-rendering:geometricPrecision; image-rendering:optimizeQuality; fill-rule:evenodd; clip-rule:evenodd"
viewBox="0 0 13229 13229"
 xmlns:xlink="http://www.w3.org/1999/xlink">
 <defs>
  <style type="text/css">
   <![CDATA[
    .str9 {stroke:#B93288;stroke-width:7.62}
    .str8 {stroke:#A35199;stroke-width:7.62}
    .str6 {stroke:#CC3289;stroke-width:7.62}
    .str5 {stroke:#CB3D8E;stroke-width:7.62}
    .str7 {stroke:#C84290;stroke-width:7.62}
    .str4 {stroke:#B02984;stroke-width:7.62}
    .str3 {stroke:#A82B76;stroke-width:7.62}
    .str0 {stroke:#89307C;stroke-width:7.62}
    .str2 {stroke:#7E3171;stroke-width:7.62}
    .str1 {stroke:#523461;stroke-width:7.62}
    .fil18 {fill:#B93288}
    .fil9 {fill:#A42E37}
    .fil17 {fill:#A35199}
    .fil8 {fill:#00A9CC}
    .fil10 {fill:#008A9C}
    .fil5 {fill:#F6A526;fill-rule:nonzero}
    .fil6 {fill:#E73A41;fill-rule:nonzero}
    .fil4 {fill:#E52943;fill-rule:nonzero}
    .fil20 {fill:#E52645;fill-rule:nonzero}
    .fil15 {fill:#E52644;fill-rule:nonzero}
    .fil14 {fill:#E05D9D;fill-rule:nonzero}
    .fil22 {fill:#CE3289;fill-rule:nonzero}
    .fil13 {fill:#CC3289;fill-rule:nonzero}
    .fil12 {fill:#CB3D8E;fill-rule:nonzero}
    .fil16 {fill:#C84290;fill-rule:nonzero}
    .fil11 {fill:#B02984;fill-rule:nonzero}
    .fil3 {fill:#A82B76;fill-rule:nonzero}
    .fil0 {fill:#89307C;fill-rule:nonzero}
    .fil2 {fill:#7E3171;fill-rule:nonzero}
    .fil1 {fill:#523461;fill-rule:nonzero}
    .fil19 {fill:#00A9CC;fill-rule:nonzero}
    .fil7 {fill:#00A1A9;fill-rule:nonzero}
    .fil21 {fill:#007DAD;fill-rule:nonzero}
   ]]>
  </style>
 </defs>
 <g id="Layer_x0020_1">
  <metadata id="CorelCorpID_0Corel-Layer"/>
  <polygon class="fil0 str0" points="10590,11839 12380,11154 10431,10491 "/>
  <polygon class="fil1 str1" points="10431,10491 10376,10472 8800,12523 10590,11839 "/>
  <polygon class="fil2 str2" points="9181,10065 8800,12523 10376,10472 "/>
  <polygon class="fil3 str3" points="7663,9548 8024,10494 8553,9851 "/>
  <polygon class="fil4" points="2239,11701 3272,11809 6660,7783 5600,3828 2996,8937 "/>
  <polygon class="fil5" points="3784,826 1627,2446 5230,2815 "/>
  <polygon class="fil6" points="1500,11303 3281,12602 3554,7229 "/>
  <polygon class="fil7" points="6344,826 6307,4481 8648,2834 "/>
  <polygon class="fil8" points="5230,2815 6344,4348 6190,6028 "/>
  <polygon class="fil6" points="3784,826 6344,826 6344,4348 "/>
  <polygon class="fil9" points="5230,2815 5915,5132 6344,4348 "/>
  <polygon class="fil10" points="6833,7690 7158,3882 7516,3630 8453,5986 "/>
  <polygon class="fil11 str4" points="8553,9851 8024,10494 8800,12523 9181,10065 "/>
  <polygon class="fil12 str5" points="10431,10491 10325,9591 9367,8862 9181,10065 "/>
  <polygon class="fil13 str6" points="8553,9851 9181,10065 9367,8862 9367,8862 "/>
  <polygon class="fil14" points="9367,8862 10325,9591 10380,8467 9367,8862 "/>
  <polygon class="fil15" points="9367,8862 9367,8862 9367,8862 "/>
  <polygon class="fil16 str7" points="9367,8862 9367,8862 8405,8594 7521,9178 7556,9269 "/>
  <polygon class="fil11" points="9367,8862 7556,9269 7663,9548 8553,9851 "/>
  <polygon class="fil17 str8" points="9566,8784 8453,5986 8405,8594 9367,8862 "/>
  <polygon class="fil18 str9" points="7521,9178 6896,7624 8453,5986 8405,8594 "/>
  <polygon class="fil8" points="5915,5132 6344,4348 7158,3882 6833,7690 6660,7783 "/>
  <polygon class="fil19" points="9869,3040 9247,2729 9000,3579 "/>
  <polygon class="fil20" points="3521,6785 1579,6845 2163,7351 "/>
  <polygon class="fil19" points="8608,1488 8392,970 7793,1360 "/>
  <polygon class="fil21" points="8493,5255 9569,4193 8330,4633 "/>
  <polygon class="fil6" points="4150,4448 4732,4787 4922,4245 "/>
  <polygon class="fil6" points="3500,11674 3881,12229 4285,11821 "/>
  <polygon class="fil22" points="9476,7788 9759,8308 10500,7729 "/>
  <polygon class="fil22" points="12127,10451 11136,9007 10873,10166 "/>
  <polygon class="fil22" points="7892,10432 6921,9854 7079,10605 "/>
 </g>
</svg>
