<?xml version="1.0" standalone="no"?>
<!DOCTYPE svg PUBLIC "-//W3C//DTD SVG 20010904//EN"
 "http://www.w3.org/TR/2001/REC-SVG-20010904/DTD/svg10.dtd">
<svg version="1.0" xmlns="http://www.w3.org/2000/svg"
 width="700.000000pt" height="700.000000pt" viewBox="0 0 700.000000 700.000000"
 preserveAspectRatio="xMidYMid meet">
<metadata>
Created by potrace 1.11, written by Peter Selinger 2001-2013
</metadata>
<g transform="translate(0.000000,700.000000) scale(0.100000,-0.100000)"
fill="#000000" stroke="none">
<path d="M2006 6560 c-29 -10 -1134 -845 -1127 -852 3 -3 40 -9 81 -13 41 -3
86 -8 100 -10 14 -2 57 -6 95 -10 39 -3 86 -8 105 -10 19 -2 64 -7 100 -10 36
-3 81 -8 100 -10 20 -3 60 -7 90 -10 80 -7 161 -16 190 -20 14 -2 59 -7 100
-10 41 -3 86 -8 100 -10 14 -2 57 -6 95 -10 39 -3 86 -7 105 -10 19 -2 62 -7
95 -10 33 -3 78 -8 100 -10 205 -23 362 -38 400 -39 29 -1 31 -5 52 -76 12
-41 51 -174 87 -295 l65 -220 -138 -270 c-133 -260 -208 -407 -549 -1075 -298
-586 -384 -755 -388 -759 -1 -2 -1 25 1 60 12 189 15 283 11 278 -5 -5 -162
-315 -686 -1354 -210 -418 -387 -765 -392 -771 -6 -8 87 -81 292 -230 166
-121 309 -226 319 -234 11 -8 29 -22 41 -30 12 -8 78 -57 148 -107 69 -51 130
-93 134 -93 4 0 8 30 9 68 1 37 2 83 4 102 2 19 5 88 9 154 l5 118 38 46 c21
26 65 79 98 118 33 39 78 93 100 119 22 27 45 53 50 59 6 6 55 65 110 131 55
66 102 122 105 125 3 3 28 32 55 65 28 33 60 71 72 85 38 44 204 242 353 420
80 95 150 178 155 184 6 6 55 65 110 131 55 66 112 133 126 150 15 16 55 64
89 105 276 330 305 362 344 382 23 11 51 31 62 44 19 20 23 21 28 6 10 -33 43
-118 58 -152 8 -19 28 -66 43 -105 15 -38 34 -83 41 -100 7 -16 27 -66 44
-110 17 -44 35 -89 40 -100 5 -11 32 -78 60 -149 28 -70 55 -136 60 -145 5 -9
21 -50 35 -91 28 -77 219 -582 397 -1045 55 -143 127 -332 160 -420 33 -88 62
-161 63 -162 4 -6 90 32 97 42 4 5 8 7 8 3 0 -7 52 9 105 33 11 5 252 97 535
205 283 107 542 206 575 219 33 13 157 60 275 106 118 45 235 90 260 100 29
11 40 19 30 23 -8 3 -187 64 -398 136 -211 71 -386 132 -391 134 -4 3 -18 7
-32 10 -13 3 -62 19 -109 36 -47 16 -86 30 -86 30 -1 0 -5 26 -8 58 -8 64 -13
108 -21 167 -3 22 -7 56 -9 75 -2 19 -8 67 -12 105 -9 83 -9 109 -1 280 4 72
10 187 13 258 l6 127 -54 -21 c-29 -12 -111 -44 -183 -71 -71 -27 -143 -56
-160 -63 -16 -8 -30 -13 -31 -12 -1 1 -27 67 -59 147 -93 235 -446 1123 -458
1150 -5 14 -11 30 -13 35 -2 6 -125 314 -274 685 -148 371 -273 683 -276 692
-6 19 -20 8 351 269 127 89 232 163 235 166 4 4 -6 14 -120 113 -41 36 -88 77
-105 91 -16 15 -91 80 -165 145 -74 64 -153 133 -176 153 -22 20 -69 61 -104
91 -35 30 -171 149 -303 264 l-240 209 -669 1 c-368 1 -675 -1 -682 -4z"/>
<path d="M4276 6381 c-160 -106 -159 -104 -56 -116 30 -4 57 -8 60 -10 3 -1
30 -6 60 -9 30 -4 89 -13 130 -20 41 -8 76 -12 78 -11 7 6 -104 265 -113 264
-5 0 -77 -44 -159 -98z"/>
<path d="M4885 5538 c-3 -7 -6 -22 -8 -33 -2 -11 -11 -45 -20 -75 -38 -125
-94 -320 -92 -320 2 0 30 17 63 38 34 20 89 55 124 76 35 21 110 68 166 104
l104 65 -159 78 c-87 43 -162 78 -166 79 -4 0 -10 -6 -12 -12z"/>
<path d="M4945 4739 c-60 -22 -148 -53 -195 -69 -314 -108 -335 -117 -333
-141 1 -20 38 -165 70 -281 8 -26 19 -16 292 253 156 153 282 279 280 278 -2
0 -53 -18 -114 -40z"/>
<path d="M2541 4739 c-10 -4 -91 -26 -178 -49 -87 -23 -159 -43 -161 -44 -1
-2 66 -42 149 -90 83 -48 152 -86 154 -84 4 5 95 265 95 271 0 7 -34 5 -59 -4z"/>
<path d="M1617 3403 c-1 -1 -106 -5 -232 -9 -127 -3 -266 -8 -310 -9 -44 -2
-116 -4 -160 -4 l-80 -2 50 -45 c28 -24 62 -55 78 -67 15 -12 44 -37 65 -56
20 -18 55 -49 78 -67 l41 -34 84 36 c46 19 100 42 119 50 19 8 44 19 55 24 11
5 115 48 230 95 116 48 212 89 214 91 3 3 -48 3 -113 2 -65 -2 -118 -4 -119
-5z"/>
<path d="M5447 2904 c-1 -1 -63 -5 -137 -8 -158 -8 -284 -17 -288 -21 -2 -2
23 -52 55 -112 32 -59 63 -117 68 -128 6 -11 16 -20 22 -20 6 0 89 61 184 135
94 74 179 141 188 147 13 11 7 12 -37 10 -30 -1 -54 -3 -55 -3z"/>
<path d="M5886 2210 c-3 -14 -15 -68 -26 -120 -12 -52 -28 -122 -35 -155 -8
-33 -26 -114 -40 -179 -14 -66 -28 -123 -31 -127 -3 -5 5 -11 18 -14 37 -9
427 -96 495 -110 34 -8 78 -18 99 -24 21 -6 40 -9 42 -7 2 2 -16 33 -41 68
-24 34 -88 128 -142 208 -55 80 -147 214 -205 297 -58 84 -110 160 -116 170
-11 16 -12 16 -18 -7z"/>
<path d="M3665 1768 c2 -7 13 -56 24 -108 27 -125 31 -144 43 -213 10 -55 12
-58 37 -53 14 3 37 8 51 10 35 6 311 66 333 73 21 6 20 6 -284 187 -109 64
-200 116 -203 116 -3 0 -4 -6 -1 -12z"/>
<path d="M1860 815 c0 -3 30 -49 68 -103 37 -53 80 -117 96 -140 l30 -43 105
105 c58 58 103 107 101 110 -3 2 -21 7 -41 10 -20 3 -42 8 -50 10 -8 3 -30 7
-49 10 -51 8 -175 30 -232 42 -16 3 -28 3 -28 -1z"/>
</g>
</svg>
