<?xml version="1.0" encoding="UTF-8" standalone="no"?><!DOCTYPE svg PUBLIC "-//W3C//DTD SVG 1.1//EN" "http://www.w3.org/Graphics/SVG/1.1/DTD/svg11.dtd"><svg width="100%" height="100%" viewBox="0 0 376 376" version="1.1" xmlns="http://www.w3.org/2000/svg" xmlns:xlink="http://www.w3.org/1999/xlink" xml:space="preserve" xmlns:serif="http://www.serif.com/" style="fill-rule:evenodd;clip-rule:evenodd;"><g id="Layer_x0020_1"><path d="M300.194,335.599l50.74,-19.418l-55.248,-18.794l-1.559,21.453l6.067,16.759Z" style="fill:#89307c;fill-rule:nonzero;stroke:#89307c;stroke-width:0.22px;"/><path d="M295.686,297.387l-1.559,-0.538l-28.602,28.057l-16.072,30.082l50.741,-19.389l-4.508,-38.212Z" style="fill:#523461;fill-rule:nonzero;stroke:#523461;stroke-width:0.22px;"/><path d="M260.253,285.311l-9.329,26.033l-1.471,43.644l44.674,-58.139l-15.341,-11.538l-18.533,0Z" style="fill:#7e3171;fill-rule:nonzero;stroke:#7e3171;stroke-width:0.22px;"/><path d="M217.222,270.656l10.233,26.816l10.273,-6.906l4.723,-11.321l-10.998,-8.554l-14.231,-0.035Z" style="fill:#a82b76;fill-rule:nonzero;stroke:#a82b76;stroke-width:0.22px;"/><path d="M63.469,331.687l29.282,3.061l96.039,-114.124l-30.047,-112.112l-73.816,144.824l-21.458,78.351Z" style="fill:#e52943;fill-rule:nonzero;"/><path d="M107.265,23.415l-61.145,45.921l102.134,10.46l-40.989,-56.381Z" style="fill:#f6a526;fill-rule:nonzero;"/><path d="M42.52,320.405l50.486,36.822l7.739,-152.307l-58.225,115.485Z" style="fill:#e73a41;fill-rule:nonzero;"/><path d="M179.833,23.415l-1.049,103.607l66.36,-46.687l-65.311,-56.92Z" style="fill:#00a1a9;fill-rule:nonzero;"/><path d="M148.254,79.796l31.579,43.456l-4.366,47.623l-27.213,-91.079Z" style="fill:#00a9cc;"/><path d="M107.265,23.415l72.568,0l0,99.837l-12.866,-3.713l-17.839,-38.529l-41.863,-57.595Z" style="fill:#e73a41;fill-rule:nonzero;"/><path d="M148.254,79.796l19.418,65.68l12.161,-22.224l-31.579,-43.456Z" style="fill:#a42e37;"/><path d="M193.694,217.988l-0.296,-1.14l2.773,-58.093l4.633,-41.531l2.103,-7.181l10.148,-7.144l26.561,66.785l-45.922,48.304Z" style="fill:#008a9c;"/><path d="M242.451,279.245l-14.996,18.227l21.998,57.516l6.739,-43.476l4.061,-26.201l-8.867,-6.066l-8.935,0Z" style="fill:#b02984;fill-rule:nonzero;stroke:#b02984;stroke-width:0.22px;"/><path d="M295.686,297.387l-3.004,-25.512l-10.311,-14.477l-16.846,-6.188l-6.716,18.571l1.444,15.53l35.433,12.076Z" style="fill:#cb3d8e;fill-rule:nonzero;stroke:#cb3d8e;stroke-width:0.22px;"/><path d="M242.451,279.245l17.802,6.066l5.272,-34.101l-17.675,17.404l-5.399,10.631Z" style="fill:#cc3289;fill-rule:nonzero;stroke:#cc3289;stroke-width:0.22px;"/><path d="M265.525,251.21l27.157,20.665l1.559,-31.862l-28.716,11.197Z" style="fill:#e05d9d;fill-rule:nonzero;"/><path d="M265.525,251.21l-14.568,-7.986l-12.701,0.389l-21.749,5.517l-3.31,11.038l0.992,2.579l17.946,2.481l33.39,-14.018Z" style="fill:#c84290;fill-rule:nonzero;stroke:#c84290;stroke-width:0.22px;"/><path d="M265.525,251.21l-38.207,8.587l-13.129,2.95l3.033,7.909l25.229,8.589l23.074,-28.035Z" style="fill:#b02984;fill-rule:nonzero;"/><path d="M271.166,248.999l-31.55,-79.315l-2.113,6.246l-1.945,61.09l2.698,6.593l27.269,7.597l5.641,-2.211Z" style="fill:#a35199;stroke:#a35199;stroke-width:0.22px;"/><path d="M213.197,260.168l-17.717,-44.051l44.136,-46.433l-1.36,73.929l-25.059,16.555Z" style="fill:#b93288;stroke:#b93288;stroke-width:0.22px;"/><path d="M167.672,145.476l12.161,-22.224l23.074,-13.209l-9.213,107.945l-4.904,2.636l-21.118,-75.148Z" style="fill:#00a9cc;"/><path d="M279.755,86.175l-17.631,-8.816l-7.002,24.095l24.633,-15.279Z" style="fill:#00a9cc;fill-rule:nonzero;"/><path d="M99.809,192.334l-55.049,1.7l16.554,14.344l38.495,-16.044Z" style="fill:#e52645;fill-rule:nonzero;"/><path d="M244.01,42.18l-6.123,-14.684l-16.98,11.056l23.103,3.628Z" style="fill:#00a9cc;fill-rule:nonzero;"/><path d="M240.75,148.963l30.501,-30.105l-35.121,12.473l4.62,17.632Z" style="fill:#007dad;fill-rule:nonzero;"/><path d="M117.64,126.087l16.497,9.61l5.386,-15.364l-21.883,5.754Z" style="fill:#e73a41;fill-rule:nonzero;"/><path d="M99.214,330.922l10.8,15.732l11.452,-11.565l-22.252,-4.167Z" style="fill:#e73a41;fill-rule:nonzero;"/><path d="M268.615,220.766l8.022,14.74l21.005,-16.413l-29.027,1.673Z" style="fill:#ce3289;fill-rule:nonzero;"/><path d="M343.763,296.253l-28.092,-40.933l-7.455,32.854l35.547,8.079Z" style="fill:#ce3289;fill-rule:nonzero;"/><path d="M223.714,295.715l-27.525,-16.385l4.479,21.289l23.046,-4.904Z" style="fill:#ce3289;fill-rule:nonzero;"/></g></svg>